#!OML:ASF E:\Steps\Project 1\Capture day 1\Session 2\Subject.ASF
:FULLY-SPECIFIED
:DEGREES
317
root 12.2842 14.2604 11.2294 22.8776 -134.628 361.82
lowerback -13.9008 -2.63867 -8.25477
upperback 0.492324 -2.08261 -3.63273
thorax 8.52168 -1.37556 0.290635
lowerneck 0.768278 0.754142 -3.638
upperneck 8.94848 0.316603 6.36317
head 2.72769 0.100572 2.725
rclavicle -2.94201e-014 -6.36111e-015
rhumerus -28.5825 25.5268 -94.2284
rradius 84.2524
rwrist -17.1758
rhand -5.1123 -40.2271
rfingers 7.12502
rthumb 20.6855 -69.1447
lclavicle -2.94201e-014 -6.36111e-015
lhumerus -32.8765 -41.3493 104.382
lradius 90.8238
lwrist 5.79425
lhand -33.5362 -34.5891
lfingers 7.12502
lthumb -6.73182 -4.71612
rfemur -57.1692 -1.10683 25.6272
rtibia 66.6379
rfoot -43.0549 -28.9754
rtoes -20.9838
lfemur -56.9067 -13.4492 -12.6335
ltibia 69.1937
lfoot 146.102 182.579
ltoes -41.3674
318
root 12.2537 14.3822 11.2657 22.7894 -135.345 362.024
lowerback -13.7241 -2.46589 -8.08808
upperback 0.222155 -1.92828 -3.482
thorax 8.1131 -1.28136 0.414516
lowerneck 0.907714 0.763868 -3.69406
upperneck 9.00847 0.319459 6.34012
head 2.72212 0.0948815 2.72687
rclavicle 1.98785e-014 -3.49861e-014
rhumerus -29.9695 25.5049 -95.3852
rradius 84.6636
rwrist -18.7938
rhand 7.42981 -44.8824
rfingers 7.12502
rthumb 32.6847 -71.9486
lclavicle 1.98785e-014 -3.49861e-014
lhumerus -33.4963 -40.9075 104.393
lradius 91.1085
lwrist 6.21212
lhand -33.1235 -33.9581
lfingers 7.12502
lthumb -6.33344 -4.0728
rfemur -56.5141 -0.698813 25.3018
rtibia 64.9384
rfoot -41.7129 -28.4824
rtoes -22.3403
lfemur -56.1274 -13.2921 -12.7403
ltibia 67.7066
lfoot 146.509 183.527
ltoes -42.1167
319
root 12.2177 14.502 11.2964 22.7328 -136.188 362.272
lowerback -13.7306 -2.25782 -7.90889
upperback -0.0792692 -1.71195 -3.33128
thorax 7.77101 -1.15859 0.53485
lowerneck 0.994781 0.765908 -3.78003
upperneck 9.07221 0.313887 6.33024
head 2.72824 0.0857533 2.7394
rclavicle -2.78299e-014 1.59028e-015
rhumerus -31.2276 25.5019 -96.3853
rradius 85.0059
rwrist -20.3168
rhand 2.3023 -43.5437
rfingers 7.12502
rthumb 27.7937 -71.5085
lclavicle -2.78299e-014 1.59028e-015
lhumerus -34.2273 -40.5358 104.468
lradius 91.307
lwrist 6.34423
lhand -32.9607 -33.1881
lfingers 7.12502
lthumb -6.17627 -3.29811
rfemur -55.8616 -0.285748 25.0686
rtibia 63.1552
rfoot -40.206 -27.9027
rtoes -23.9863
lfemur -55.2954 -13.1445 -12.7801
ltibia 66.1759
lfoot 146.832 183.975
ltoes -41.5301
320
root 12.1806 14.6213 11.3232 22.6306 -137.173 362.611
lowerback -13.856 -2.01639 -7.60161
upperback -0.342414 -1.45376 -3.2306
thorax 7.53111 -1.01405 0.530904
lowerneck 1.0335 0.736036 -3.86254
upperneck 9.12358 0.266298 6.34633
head 2.74179 0.0577524 2.75988
rclavicle -2.70347e-014 1.51076e-013
rhumerus -32.3433 25.2849 -97.2913
rradius 85.2554
rwrist -20.6465
rhand -2.68327 -40.8536
rfingers 7.12502
rthumb 23.0179 -69.4991
lclavicle -2.70347e-014 1.51076e-013
lhumerus -34.8451 -40.2783 104.354
lradius 91.4191
lwrist 6.37954
lhand -33.0125 -32.8226
lfingers 7.12502
lthumb -6.2263 -2.93413
rfemur -55.1755 0.206248 24.9671
rtibia 61.4022
rfoot -38.8628 -27.1308
rtoes -25.6605
lfemur -54.3328 -12.9308 -12.7334
ltibia 64.4469
lfoot 147.15 184.492
ltoes -40.7656
321
root 12.1428 14.739 11.348 22.6378 -138.375 362.773
lowerback -14.0256 -1.84226 -7.38724
upperback -0.606531 -1.2692 -3.19844
thorax 7.32262 -0.912026 0.486991
lowerneck 1.11332 0.715912 -3.89502
upperneck 9.15999 0.229997 6.34219
head 2.74164 0.0348666 2.76352
rclavicle 3.18055e-014 -1.03368e-013
rhumerus -33.3167 25.4277 -98.384
rradius 85.2292
rwrist -20.7645
rhand 6.88026 -44.0211
rfingers 7.12502
rthumb 32.1617 -71.1945
lclavicle 3.18055e-014 -1.03368e-013
lhumerus -35.603 -39.9014 104.049
lradius 91.6417
lwrist 6.47941
lhand -33.1786 -33.0489
lfingers 7.12502
lthumb -6.38662 -3.16522
rfemur -54.5224 0.843785 24.6752
rtibia 59.6252
rfoot -37.6468 -26.3868
rtoes -26.7103
lfemur -53.2473 -12.6578 -12.8777
ltibia 62.5786
lfoot 147.577 185.341
ltoes -40.6343
322
root 12.1034 14.8536 11.372 22.9134 -139.803 362.715
lowerback -14.3972 -1.71486 -7.26656
upperback -0.88538 -1.11758 -3.29673
thorax 7.21362 -0.835579 0.342255
lowerneck 1.10378 0.705318 -3.83906
upperneck 9.17162 0.210463 6.33922
head 2.74811 0.0253127 2.75198
rclavicle -2.78299e-015 -6.20208e-014
rhumerus -34.6714 25.4124 -99.7837
rradius 85.7086
rwrist -21.1304
rhand -3.02691 -39.8753
rfingers 7.12502
rthumb 22.6881 -68.5615
lclavicle -2.78299e-015 -6.20208e-014
lhumerus -36.5649 -39.461 103.565
lradius 92.0974
lwrist 6.75044
lhand -33.0165 -32.997
lfingers 7.12502
lthumb -6.23018 -3.10861
rfemur -54.2024 1.43428 24.2088
rtibia 58.0582
rfoot -36.4539 -25.889
rtoes -27.2759
lfemur -52.2648 -12.3033 -13.2336
ltibia 60.7293
lfoot 148.075 186.492
ltoes -41.8605
323
root 12.0622 14.969 11.3914 23.2883 -141.337 362.582
lowerback -15.0468 -1.63857 -7.2543
upperback -1.02568 -0.97781 -3.38142
thorax 7.4134 -0.777837 0.258297
lowerneck 1.00282 0.652063 -3.75516
upperneck 9.16169 0.136387 6.36812
head 2.76749 -0.00710845 2.74593
rclavicle -2.66371e-014 3.02153e-014
rhumerus -35.2888 26.1614 -100.895
rradius 85.7244
rwrist -21.9183
rhand -4.22991 -38.9596
rfingers 7.12502
rthumb 21.5332 -67.7826
lclavicle -2.66371e-014 3.02153e-014
lhumerus -37.165 -38.9603 102.963
lradius 92.4302
lwrist 7.13128
lhand -32.725 -32.7205
lfingers 7.12502
lthumb -5.94873 -2.82405
rfemur -53.6822 2.07375 23.708
rtibia 56.258
rfoot -35.4083 -25.77
rtoes -28.3647
lfemur -51.2715 -11.8432 -13.6826
ltibia 58.775
lfoot 148.636 187.512
ltoes -43.177
324
root 12.0186 15.0866 11.4076 23.7166 -142.909 362.207
lowerback -15.7511 -1.68206 -7.52566
upperback -1.05232 -0.934429 -3.37462
thorax 7.77866 -0.781507 0.405979
lowerneck 0.899634 0.610757 -3.74759
upperneck 9.14216 0.079964 6.40506
head 2.78353 -0.0328745 2.75698
rclavicle -2.14687e-014 -1.43125e-014
rhumerus -36.174 26.3232 -101.905
rradius 86.0177
rwrist -21.7693
rhand -4.45849 -40.0135
rfingers 7.12502
rthumb 21.3136 -68.8614
lclavicle -2.14687e-014 -1.43125e-014
lhumerus -37.6727 -38.2534 102.444
lradius 92.6642
lwrist 7.49646
lhand -32.5489 -32.7303
lfingers 7.12502
lthumb -5.77866 -2.8291
rfemur -53.1477 2.32681 23.1747
rtibia 54.5462
rfoot -34.4685 -25.6698
rtoes -30.5333
lfemur -50.0996 -11.4281 -14.386
ltibia 56.6715
lfoot 149.277 188
ltoes -43.1191
325
root 11.9741 15.2037 11.425 24.2668 -144.498 361.646
lowerback -16.4123 -1.77509 -7.84687
upperback -1.12129 -0.95525 -3.4254
thorax 8.07661 -0.818975 0.506865
lowerneck 0.849625 0.552552 -3.69756
upperneck 9.10861 -0.002969 6.44479
head 2.78633 -0.0720538 2.75967
rclavicle -9.89948e-014 -3.18055e-015
rhumerus -37.0929 26.5785 -102.88
rradius 86.2598
rwrist -21.2777
rhand -4.79984 -40.1131
rfingers 7.12502
rthumb 20.9857 -68.9978
lclavicle -9.89948e-014 -3.18055e-015
lhumerus -38.3491 -37.5944 101.893
lradius 93.0182
lwrist 7.87042
lhand -32.3544 -32.8603
lfingers 7.12502
lthumb -5.59095 -2.95405
rfemur -52.7384 2.32416 22.5382
rtibia 52.925
rfoot -33.6039 -25.2956
rtoes -32.667
lfemur -48.9971 -11.0864 -15.2595
ltibia 54.5753
lfoot 150.061 188.385
ltoes -43.0262
326
root 11.9299 15.3211 11.4427 24.8332 -146.052 361.16
lowerback -17.0618 -1.85879 -7.96532
upperback -1.25973 -1.00692 -3.59659
thorax 8.287 -0.863925 0.357558
lowerneck 0.823766 0.479038 -3.49501
upperneck 9.0552 -0.110475 6.47651
head 2.7782 -0.11997 2.73009
rclavicle -7.67309e-014 6.36111e-015
rhumerus -37.7421 26.7528 -103.905
rradius 86.1708
rwrist -20.2941
rhand -2.79148 -40.5906
rfingers 7.12502
rthumb 22.9141 -69.2491
lclavicle -7.67309e-014 6.36111e-015
lhumerus -38.9136 -37.0132 101.168
lradius 93.336
lwrist 8.14446
lhand -32.0868 -32.7359
lfingers 7.12502
lthumb -5.3325 -2.82295
rfemur -52.3529 2.2512 21.9892
rtibia 51.1909
rfoot -32.7212 -24.6249
rtoes -34.3701
lfemur -48.0706 -10.8062 -15.9973
ltibia 52.5721
lfoot 150.878 188.506
ltoes -42.3523
327
root 11.8849 15.4364 11.4591 25.4652 -147.578 360.691
lowerback -17.7299 -1.93951 -8.04264
upperback -1.51503 -1.079 -3.81617
thorax 8.37601 -0.917608 0.128242
lowerneck 0.846339 0.406986 -3.2074
upperneck 8.99219 -0.218658 6.48752
head 2.75688 -0.16787 2.67696
rclavicle 5.88403e-014 -3.18055e-014
rhumerus -38.574 26.5528 -105.089
rradius 86.0503
rwrist -19.4972
rhand -0.544425 -41.3602
rfingers 7.12502
rthumb 25.0688 -69.7348
lclavicle 5.88403e-014 -3.18055e-014
lhumerus -39.6876 -36.2582 100.615
lradius 93.608
lwrist 8.19635
lhand -31.6559 -32.4014
lfingers 7.12502
lthumb -4.91645 -2.4784
rfemur -51.7533 2.0527 21.4918
rtibia 48.8605
rfoot -31.684 -23.4711
rtoes -35.3089
lfemur -47.3141 -10.7107 -16.6302
ltibia 50.683
lfoot 151.748 188.435
ltoes -40.4423
328
root 11.8405 15.5475 11.4748 26.1435 -149.059 360.294
lowerback -18.3837 -2.35256 -8.21136
upperback -1.77437 -1.58909 -3.56215
thorax 8.49233 -1.1832 0.351362
lowerneck 0.634019 0.494972 -3.61714
upperneck 8.99793 -0.08779 6.52963
head 2.79394 -0.110524 2.77234
rclavicle 1.59028e-015 -4.45278e-014
rhumerus -39.6877 27.8224 -106.036
rradius 86.1181
rwrist -19.8991
rhand -0.666622 -42.1978
rfingers 7.12502
rthumb 24.9517 -70.5888
lclavicle 1.59028e-015 -4.45278e-014
lhumerus -40.2171 -34.3008 100.35
lradius 93.8302
lwrist 7.95172
lhand -31.4406 -32.0841
lfingers 7.12502
lthumb -4.70857 -2.15639
rfemur -51.7104 1.78565 21.1368
rtibia 47.3233
rfoot -30.94 -22.2944
rtoes -36.2859
lfemur -46.7461 -10.6914 -17.1451
ltibia 48.8337
lfoot 152.868 188.955
ltoes -40.4803
